<svg width="25" height="25" viewBox="0 0 25 25" fill="none" xmlns="http://www.w3.org/2000/svg">
<g id="fe:clock">
<g id="feClock0">
<g id="feClock1">
<path id="feClock2" fill-rule="evenodd" clip-rule="evenodd" d="M12.9902 22.8469C7.46723 22.8469 2.99023 18.3699 2.99023 12.8469C2.99023 7.32392 7.46723 2.84692 12.9902 2.84692C18.5132 2.84692 22.9902 7.32392 22.9902 12.8469C22.9902 18.3699 18.5132 22.8469 12.9902 22.8469ZM20.9902 12.8469C20.9902 10.7252 20.1474 8.69036 18.6471 7.19007C17.1468 5.68978 15.112 4.84692 12.9902 4.84692C10.8685 4.84692 8.83367 5.68978 7.33338 7.19007C5.83309 8.69036 4.99023 10.7252 4.99023 12.8469C4.99023 14.9687 5.83309 17.0035 7.33338 18.5038C8.83367 20.0041 10.8685 20.8469 12.9902 20.8469C15.112 20.8469 17.1468 20.0041 18.6471 18.5038C20.1474 17.0035 20.9902 14.9687 20.9902 12.8469ZM16.9902 11.8469C17.2555 11.8469 17.5098 11.9523 17.6973 12.1398C17.8849 12.3274 17.9902 12.5817 17.9902 12.8469C17.9902 13.1121 17.8849 13.3665 17.6973 13.554C17.5098 13.7416 17.2555 13.8469 16.9902 13.8469H13.9902C12.8902 13.8469 11.9902 12.9469 11.9902 11.8469V7.84692C11.9902 7.58171 12.0956 7.32735 12.2831 7.13982C12.4707 6.95228 12.725 6.84692 12.9902 6.84692C13.2555 6.84692 13.5098 6.95228 13.6973 7.13982C13.8849 7.32735 13.9902 7.58171 13.9902 7.84692V11.8469H16.9902Z" fill="white"/>
</g>
</g>
</g>
</svg>
