<svg width="21" height="21" viewBox="0 0 21 21" fill="none" xmlns="http://www.w3.org/2000/svg">
<g id="vuesax/linear/profile-2user">
<g id="profile-2user">
<path id="Vector" d="M8.45698 9.89082C8.37458 9.88258 8.2757 9.88258 8.18506 9.89082C6.2239 9.82489 4.6665 8.21806 4.6665 6.24042C4.6665 4.22158 6.29806 2.58179 8.32514 2.58179C10.344 2.58179 11.9838 4.22158 11.9838 6.24042C11.9755 8.21806 10.4181 9.82489 8.45698 9.89082Z" stroke="white" stroke-width="1.85404" stroke-linecap="round" stroke-linejoin="round"/>
<path id="Vector_2" d="M14.4313 4.22998C16.0299 4.22998 17.3154 5.52369 17.3154 7.11404C17.3154 8.67143 16.0794 9.94042 14.5385 9.9981C14.4725 9.98986 14.3984 9.98986 14.3242 9.9981" stroke="white" stroke-width="1.85404" stroke-linecap="round" stroke-linejoin="round"/>
<path id="Vector_3" d="M4.3369 12.9317C2.34278 14.2667 2.34278 16.4421 4.3369 17.7687C6.60295 19.2849 10.3193 19.2849 12.5853 17.7687C14.5794 16.4338 14.5794 14.2584 12.5853 12.9317C10.3275 11.4238 6.61119 11.4238 4.3369 12.9317Z" stroke="white" stroke-width="1.85404" stroke-linecap="round" stroke-linejoin="round"/>
<path id="Vector_4" d="M16.0215 17.4141C16.6148 17.2905 17.1751 17.0515 17.6366 16.6972C18.922 15.7331 18.922 14.1427 17.6366 13.1786C17.1833 12.8325 16.6313 12.6018 16.0462 12.47" stroke="white" stroke-width="1.85404" stroke-linecap="round" stroke-linejoin="round"/>
</g>
</g>
</svg>
